<svg id="furgonetka-homepl" xmlns="http://www.w3.org/2000/svg" viewBox="0 0 924.402 193.261">
  <style>
    .st1,.st2,.st3,.st4{fill:none;stroke:#494b52;stroke-width:1.5;stroke-linecap:round;stroke-linejoin:round;stroke-miterlimit:10}.st2,.st3,.st4{fill:#fff}.st3,.st4{fill:#e5e5e5}.st4{fill:none;stroke:#ff2a2a}.st5{fill:#fff}.st6{fill:#e5e5e5}.st9{fill:none;stroke:#fff;stroke-width:1.5;stroke-linecap:round;stroke-linejoin:round;stroke-miterlimit:10}.st11{fill:#2594c9}.st17{fill:none;stroke:#2492c9;stroke-width:1.5;stroke-linecap:round;stroke-linejoin:round;stroke-miterlimit:10}
  </style>
  <path d="M587.576 187.416c0-69.036-55.964-125-125-125s-125 55.964-125 125h250z" fill="#2492c9" stroke="#2492c9" stroke-width="1.5" stroke-linecap="round" stroke-linejoin="round" stroke-miterlimit="10"/>
  <path class="st1" d="M80.763 168.227c0 10.581 8.577 19.158 19.158 19.158h200.404c10.581 0 19.158-8.577 19.158-19.158v-4.273M305.443 192.511c6.41 0 12.084-3.148 15.562-7.981M333.193 56.62c-7.149 0-13.383 3.915-16.675 9.719M594.393 56.906c5.94 1.037 10.94 4.811 13.653 9.975M608.539 160.195v8.032c0 10.581 8.577 19.158 19.158 19.158h200.404c10.581 0 19.158-8.577 19.158-19.158M319.826 88.952v-8.048c0-10.581 8.577-19.158 19.158-19.158H584.91c10.581 0 19.158 8.577 19.158 19.158v11.807"/>
  <path class="st2" d="M281.72 88.952h75.001v75.001H281.72z"/>
  <path class="st3" d="M346.939 163.953v-6.522h-7.109c-.522-2.217-1.402-4.337-2.576-6.228l5.022-5.022-6.913-6.913-5.022 5.022c-1.891-1.174-4.011-2.054-6.228-2.576v-7.109h-9.783v7.109c-2.217.522-4.337 1.402-6.228 2.576l-5.022-5.022-6.913 6.913 5.022 5.022c-1.174 1.891-2.054 4.011-2.576 6.228h-7.109v6.522h55.435z"/>
  <path class="st2" d="M327.373 162.323c0 .554-.065 1.109-.163 1.63h-15.979c-.098-.522-.163-1.076-.163-1.63 0-4.5 3.652-8.152 8.152-8.152 4.501 0 8.153 3.652 8.153 8.152z"/>
  <circle class="st3" cx="293.134" cy="97.104" r="1.63"/>
  <circle class="st3" cx="302.916" cy="97.104" r="1.63"/>
  <circle class="st3" cx="312.699" cy="97.104" r="1.63"/>
  <path class="st1" d="M281.72 105.257h75.002"/>
  <path class="st4" d="M326.691 124.342h-13.804l-5.752-13.805h-3.451M310.675 117.44h18.317M311.449 120.891h16.393M308.573 113.988h21.569"/>
  <circle class="st4" cx="314.613" cy="128.368" r="1.726"/>
  <circle class="st4" cx="323.815" cy="128.368" r="1.726"/>
  <path class="st5" d="M75.805 116.795h7.581v3.79h-7.581zM73.91 113.004h11.371v3.79H73.91zM85.282 113.004c0-4.553 1.391-8.972 3.868-12.793 1.15-1.774 1.818-3.887 1.818-6.16 0-6.733-5.852-12.099-12.747-11.29-4.967.583-9.085 4.527-9.853 9.468-.465 2.988.237 5.796 1.718 8.047 2.324 3.532 3.825 7.54 3.825 11.768v.959h11.371z"/>
  <path class="st4" d="M98.548 95.948h-1.895M62.539 95.948h-1.895M79.596 78.891v-1.896M92.997 109.349l-1.34-1.34M67.535 83.886l-1.34-1.34M66.195 109.349l1.34-1.34M91.657 83.886l1.34-1.34"/>
  <path class="st6" d="M84.695 83.886s-10.584 3.278-6.99 16.566c1.922 7.187.919 12.552.919 12.552H73.91s.59-6.384-3.825-12.727.372-21.424 14.61-16.391z"/>
  <path class="st1" d="M85.282 113.004c0-4.553 1.391-8.972 3.868-12.793 1.15-1.774 1.818-3.887 1.818-6.16 0-6.733-5.852-12.099-12.747-11.29-4.967.583-9.085 4.527-9.853 9.468-.465 2.988.237 5.796 1.718 8.047 2.324 3.532 3.825 7.54 3.825 11.768v.959h11.371zM74.97 88.053c.42-.325.873-.607 1.353-.839"/>
  <path class="st1" d="M73.251 98.194c-.182-.277-.368-.599-.539-.965-.171-.366-.326-.775-.447-1.226s-.206-.943-.238-1.475-.01-1.104.085-1.713c.126-.815.394-1.591.774-2.303"/>
  <path class="st6" d="M75.805 116.795h2.674v3.79h-2.674z"/>
  <path class="st1" d="M75.805 116.795h7.581v3.79h-7.581z"/>
  <path class="st6" d="M73.91 113.004h2.674v3.79H73.91z"/>
  <path class="st1" d="M73.91 113.004h11.371v3.79H73.91z"/>
  <g>
    <path class="st4" d="M34.409 149.195H53.44M37.581 142.852h12.688M34.409 136.508h12.688"/>
    <path class="st1" d="M37.581 114.305h9.516l5.297 12.688"/>
    <path class="st2" d="M97.846 126.993h9.516l-9.516 25.374h-34.89l-10.562-25.374h13.734z"/>
    <circle class="st3" cx="67.714" cy="163.469" r="4.758"/>
    <circle class="st3" cx="93.088" cy="163.469" r="4.758"/>
    <path class="st1" d="M56.354 133.336h47.439M58.995 139.68h42.42M61.636 146.024h37.4"/>
  </g>
  <path class="st1" d="M93.088 158.711H67.714v-6.344"/>
  <g>
    <path class="st5" d="M923.347 143.769l-2.192 8.21h-4.03l-1.048 5.784H773.54l-1.101-5.784h-6.158l-1.967-31.975 4.864-26.823c.609-2.694 2.993-4.597 5.752-4.597h91.223c6.201 0 12.134 2.566 16.378 7.088l23.754 25.315 9.173 4.704c2.32 1.187 4.116 3.197 5.035 5.634l2.566 6.81c.684 1.807.78 3.774.288 5.634z"/>
    <g id="XMLID_2_">
      <path class="st1" d="M914.259 151.979h6.889l2.195-8.218c.492-1.86.394-3.828-.285-5.62l-2.569-6.82c-.915-2.441-2.706-4.448-5.029-5.629l-9.172-4.704-23.748-25.313c-4.252-4.527-10.186-7.096-16.396-7.096h-91.212c-2.116 0-4.015 1.122-5.059 2.864M813.708 151.979h65.968M765.641 112.672l-1.328 7.332 1.968 31.975h12.843M813.708 151.979c-1.732-7.952-8.818-13.896-17.292-13.896-8.474 0-15.56 5.944-17.292 13.896"/>
      <path class="st1" d="M914.259 151.979c-1.732-7.952-8.818-13.896-17.292-13.896s-15.56 5.944-17.292 13.896"/>
      <path class="st1" d="M772.442 151.979l1.102 5.787H916.08l1.043-5.787"/>
    </g>
    <circle class="st3" cx="796.413" cy="155.793" r="12.302"/>
    <circle class="st3" cx="896.969" cy="155.793" r="12.302"/>
    <circle class="st2" cx="796.413" cy="155.793" r="3.937"/>
    <path class="st3" d="M896.474 118.054l-17.529-18.373c-2.456-2.574-5.858-4.03-9.415-4.03h-6.359c-1.087 0-1.968.881-1.968 1.968v18.467c0 1.087.881 1.968 1.968 1.968h33.303z"/>
    <path class="st1" d="M861.316 116.73l9.259-9.259M865.864 118.054l11.343-11.342"/>
    <circle class="st2" cx="896.969" cy="155.793" r="3.937"/>
    <path class="st2" d="M889.005 114.248c0-1.441-1.168-2.609-2.609-2.609h-2.609v9.133h2.609c1.441 0 2.609-1.168 2.609-2.609v-3.915z"/>
    <path class="st1" d="M778.109 119.746h65.387M922.85 137.984l-4.183-1.678c-3.006-1.206-5.162-3.897-5.683-7.094l-.852-5.229M765.758 143.491h17.908M909.716 143.491h13.307M809.159 143.491h75.063"/>
    <path class="st2" d="M867.28 125.1h-6.077"/>
    <path class="st1" d="M765.712 143.02h3.936v-12.989c0-2.305-2.136-4.189-4.831-4.326"/>
    <g>
      <path class="st4" d="M773.424 102.02h-21.487M747.088 102.02h-5.936M770.391 108.39h-14.605M750.937 108.39h-4.892M735.71 102.02h-3.162M776.451 95.651h-28.33M743.267 95.651h-3.849"/>
    </g>
    <path class="st1" d="M777.288 168.095h34.874M818.593 168.095h6.333M766.481 168.095h6.333M831.246 168.095h80.978"/>
  </g>
  <g>
    <path class="st5" d="M571.596 110.315h64.55v49.879h-64.55zM633.072 92.711h-58.403l-3.073 17.604h64.549z"/>
    <path class="st6" d="M571.596 110.315h64.55v49.879h-64.55z"/>
    <path class="st1" d="M571.596 143.415v-33.1h64.549v49.88h-32.274M633.072 92.711h-58.403l-3.073 17.604h64.549zM603.871 92.711v17.604"/>
    <g>
      <path class="st1" d="M623.162 154.327h6.08M622.127 146.176l4.075-4.075 4.075 4.075M626.202 142.101v12.226"/>
    </g>
    <g>
      <path class="st2" d="M600.134 161.162c.061-.314.098-.636.098-.967 0-.332-.037-.654-.098-.967-.294-2.763-1.775-5.169-3.97-6.64v-3.613c0-1.123-.911-2.034-2.034-2.034h-34.577c-1.123 0-2.034.911-2.034 2.034v3.613c-2.196 1.471-3.676 3.877-3.97 6.64-.061.314-.098.636-.098.967 0 .332.037.654.098.967.294 2.763 1.775 5.169 3.97 6.64v3.614c0 1.123.911 2.034 2.034 2.034h34.577c1.123 0 2.034-.911 2.034-2.034v-3.614c2.195-1.471 3.675-3.877 3.97-6.64z"/>
      <path class="st4" d="M582.589 154.447l-11.496 11.496"/>
      <circle class="st4" cx="572.734" cy="156.088" r="2.463"/>
      <circle class="st4" cx="580.947" cy="164.301" r="2.463"/>
    </g>
  </g>
  <path class="st2" d="M277.119 163.953v-24.267M277.119 134.605v-10.263M640.913 160.195v-27.033M640.913 127.502v-11.433M103.793 168.227H60.644M54.279 168.227h-7.182"/>
  <path class="st1" d="M166.308 192.511h33.815M207.091 192.511h48.268M261.766 192.511h9.397M141.738 182.259h46.932M195.558 182.259h10.732M353.913 66.871h29.875M423.233 66.871h10.31M439.95 66.871h4.699M519.954 56.62h10.541M731.11 192.511h10.261M748.339 192.511h35.835M660.275 182.259h30.163M537.382 56.62h7.505M697.273 182.259h8.329M323.339 180.205c.815-2.128 1.262-4.438 1.262-6.852M609.614 70.928c.404 1.549.619 3.174.619 4.85"/>
  <path fill-rule="evenodd" clip-rule="evenodd" fill="none" stroke="#494b52" stroke-width="1.5" stroke-linecap="round" stroke-linejoin="round" stroke-miterlimit="10" d="M461.392 61.745v41.809"/>
  <g>
    <path class="st5" d="M523.492 177.124H401.66v-74.24c0-1.275 1.033-2.308 2.308-2.308h117.216c1.275 0 2.308 1.033 2.308 2.308v74.24z"/>
    <path class="st2" d="M523.492 141.504v35.62h-22.514M494.142 177.124H401.66v-74.24c0-1.275 1.033-2.308 2.308-2.308h117.215c1.275 0 2.308 1.033 2.308 2.308v31.988"/>
    <path class="st5" d="M517.066 107.001l-.16 64.034H408.085v-64.034z"/>
    <path class="st1" d="M494.142 171.035h-86.057v-64.034h108.981v27.871"/>
    <path class="st6" d="M398.197 177.124c-1.275 0-2.308 1.033-2.308 2.308v3.976l4.616 3.976H524.68l4.616-3.976v-3.976c0-1.275-1.033-2.308-2.308-2.308H398.197z"/>
    <path class="st5" d="M529.296 181.1v-3.976H395.889v3.976"/>
    <path class="st1" d="M401.66 181.1h51.997M464.073 181.1h30.069M503.812 181.1h8.14M516.985 177.124H395.889v6.284l4.616 3.977H524.68l4.616-3.977v-6.284M392.426 187.385h201.967M330.142 187.385h57.177"/>
    <path class="st3" d="M429.891 171.035l9.21-9.21M415.903 171.035l17.675-17.675"/>
    <path class="st2" d="M501.36 187.385c-1.22 0-2.21-.989-2.21-2.21v-43.919c0-1.22.989-2.21 2.21-2.21h25.727c1.22 0 2.21.989 2.21 2.21v44.903c0 .677-.549 1.226-1.226 1.226H501.36z"/>
    <path fill="#28a1d1" stroke="#494b52" stroke-width="1.5" stroke-linecap="round" stroke-linejoin="round" stroke-miterlimit="10" d="M502.464 143.466h23.517v39.5h-23.517z"/>
    <path class="st2" d="M502.464 182.966l10.028-10.028M508.798 182.966l5.88-5.881"/>
    <g>
      <path class="st9" d="M402.712 96.535c-2.921 0-5.289 2.368-5.289 5.289M398.008 93.388c-2.061 0-3.732 1.671-3.732 3.732"/>
    </g>
    <g>
      <path d="M430.457 144.891h1.277v-3.071h2.812v-1.079h-2.812v-1.794h3.162v-1.079h-4.439v7.023zm8.223-1.019c-.076.015-.198.03-.365.046-.167.015-.319.015-.471.015-.41 0-.699-.122-.866-.365s-.243-.654-.243-1.216v-2.766h-1.231v2.964c0 .365.03.684.106.988.076.304.198.562.365.775.167.213.395.38.684.502.289.122.638.182 1.064.182.456 0 .866-.03 1.246-.091s.684-.122.927-.182v-5.138h-1.231v4.287h.015zm5.062-4.347c-.106-.015-.213-.03-.319-.046-.106-.015-.198-.015-.289-.015-.426 0-.821.046-1.186.122-.35.076-.654.167-.882.243v5.047h1.231v-4.256c.061-.015.167-.046.319-.076s.289-.046.426-.046c.243 0 .441.015.623.061.182.03.319.076.426.106l.213-1.034c-.061-.015-.137-.046-.243-.061-.106-.015-.213-.03-.319-.045zm3.542-.061c-.41 0-.775.061-1.11.198-.319.122-.593.304-.821.532-.228.228-.395.502-.517.836-.122.319-.182.684-.182 1.064 0 .41.061.775.167 1.094.106.319.274.578.471.79.198.213.441.365.714.471s.593.167.927.167c.258 0 .486-.03.684-.091.198-.061.365-.122.486-.182v.198c0 .395-.106.699-.319.897-.213.198-.562.304-1.049.304-.304 0-.593-.03-.866-.076-.274-.061-.502-.122-.714-.213l-.228 1.049c.243.091.532.152.836.213.304.061.623.076.942.076.882 0 1.55-.198 1.976-.593.426-.395.638-1.003.638-1.854v-4.591c-.243-.061-.547-.137-.912-.198-.348-.06-.728-.091-1.123-.091zm.821 3.861c-.106.076-.243.137-.426.198-.167.061-.35.076-.547.076-.365 0-.654-.122-.882-.365-.228-.243-.334-.623-.334-1.14 0-.486.122-.866.35-1.155.243-.289.578-.441 1.018-.441.198 0 .365.015.486.03.122.015.243.03.319.061v2.736h.016zm6.475-3.116c-.228-.243-.486-.426-.806-.562-.319-.137-.654-.198-1.034-.198-.365 0-.714.061-1.018.198-.304.137-.578.319-.806.562-.228.243-.395.532-.532.882-.122.334-.182.714-.182 1.14s.061.806.182 1.14c.122.35.304.638.517.882.228.243.486.426.806.562.304.137.654.198 1.034.198s.73-.061 1.034-.198c.319-.137.578-.319.806-.562.228-.243.395-.532.517-.882s.182-.73.182-1.14c0-.426-.061-.806-.182-1.14-.123-.35-.305-.639-.518-.882zm-.897 3.283c-.228.304-.547.471-.942.471-.41 0-.714-.152-.942-.471-.228-.304-.334-.73-.334-1.262s.106-.942.334-1.246c.228-.304.547-.456.942-.456.41 0 .714.152.942.456.228.304.334.73.334 1.246.016.533-.106.958-.334 1.262zm6.43-3.344c-.167-.213-.41-.38-.699-.502s-.654-.182-1.079-.182c-.456 0-.882.03-1.262.091s-.684.122-.927.198v5.138h1.231v-4.287c.076-.015.213-.03.38-.046s.334-.03.486-.03c.213 0 .38.03.532.091.152.061.258.152.35.274.091.122.152.289.182.486.03.198.061.441.061.73v2.782h1.231v-2.995c0-.365-.03-.684-.106-.988-.091-.289-.213-.547-.38-.76zm3.937-.699c-.304 0-.608.061-.912.182-.304.122-.562.289-.79.532-.228.228-.41.532-.547.882-.137.35-.213.76-.213 1.231 0 .395.061.76.167 1.094.106.334.274.623.502.866.228.243.502.441.851.578.35.137.745.213 1.216.213.182 0 .365-.015.532-.03.182-.015.334-.046.486-.076.152-.03.289-.061.41-.106.122-.03.213-.076.274-.106l-.167-1.003c-.137.061-.334.122-.578.167-.243.061-.517.076-.821.076-.502 0-.897-.122-1.155-.35-.274-.228-.41-.562-.456-.988h3.496c0-.061.015-.137.015-.228v-.228c0-.897-.198-1.581-.608-2.022-.41-.456-.972-.684-1.702-.684zm-1.186 2.265c.015-.152.061-.304.106-.456.061-.152.137-.274.228-.395.091-.122.213-.213.365-.274.137-.076.304-.106.502-.106.182 0 .334.03.471.091s.243.152.334.258c.091.106.167.243.213.395.046.152.076.319.076.486h-2.295zm7.053 2.158c-.167.046-.365.076-.593.076-.319 0-.547-.091-.684-.274-.137-.182-.198-.486-.198-.912v-2.158h1.885v-1.018h-1.885v-1.611l-1.231.198v4.591c0 .35.03.669.091.942s.167.502.319.699c.152.198.35.334.608.441.258.106.562.152.942.152.304 0 .578-.03.806-.091.228-.061.41-.122.562-.182l-.198-.973c-.12.029-.256.075-.424.12zm5.032-.547c-.213-.274-.426-.532-.654-.76-.228-.243-.441-.441-.638-.608.38-.38.76-.775 1.125-1.186.38-.41.73-.79 1.064-1.17h-1.444c-.106.122-.243.274-.395.456-.152.167-.319.35-.486.532-.167.182-.334.365-.517.562-.182.182-.334.365-.502.517v-4.651l-1.231.198v7.661h1.231v-2.432c.182.137.365.304.562.486.182.198.38.395.562.608.182.213.35.441.517.669.152.228.304.456.426.654h1.414c-.122-.228-.274-.486-.456-.745-.168-.259-.365-.517-.578-.791zm5.548-2.63c-.076-.258-.182-.486-.35-.669-.167-.182-.38-.319-.669-.426-.274-.106-.623-.152-1.018-.152-.334 0-.654.03-.958.076-.304.061-.517.106-.684.167l.152.988c.152-.061.334-.106.578-.137.243-.046.502-.061.775-.061.213 0 .38.03.517.076.137.061.243.137.334.228s.137.213.182.334c.03.122.046.258.046.41v.198c-.167-.046-.334-.076-.471-.091-.152-.015-.289-.03-.426-.03-.289 0-.562.03-.836.091-.274.061-.502.152-.699.289-.198.137-.365.304-.486.517-.122.213-.182.471-.182.775 0 .319.046.578.152.806.106.213.243.395.441.532.182.137.41.228.669.289.258.061.547.091.866.091.486 0 .912-.03 1.292-.091s.669-.106.851-.152v-3.207c.03-.303-.015-.592-.076-.851zm-1.094 3.269c-.198.046-.486.061-.866.061-.304 0-.562-.061-.745-.167-.182-.106-.274-.319-.274-.608 0-.152.03-.274.106-.365.061-.091.152-.167.274-.228.106-.061.243-.091.38-.106s.274-.03.41-.03c.152 0 .304.015.426.03s.228.046.289.061v1.352z" fill="#494b52"/>
      <path class="st11" d="M483.932 150.105l-5.898-3.344h2.584c.942.547 1.885 1.079 2.706 1.566v-7.95c-.076-1.003-.654-1.885-1.444-2.417l-6.263-3.648v2.873l-1.216.699v-4.864l9.516-5.472 9.531 5.472v11.689l-9.516 5.396zm0-21.16c-2.037 1.186-6.111 3.511-7.57 4.363 2.554 1.474 5.062 2.919 6.445 3.724.76.578.973 1.064 1.125 1.398.122-.334.289-.79 1.018-1.338 1.353-.775 3.891-2.234 6.567-3.785-1.641-.957-5.548-3.176-7.585-4.362zm8.315 5.381l-6.187 3.603c-.821.532-1.429 1.429-1.505 2.462v7.95c2.599-1.505 6.263-3.633 7.707-4.454v-9.561h-.015zm-3.709 8.391l-.958.441v1.915l-1.216.699v-1.961l-1.003.456 1.55-2.873 1.627 1.323z"/>
    </g>
    <g>
      <path d="M514.667 169.965l-6.235-3.565v-7.538l6.235-3.555 6.243 3.555v7.595l-6.243 3.508zm-5.438-9.564v5.458c.632.362 3.482 1.985 5.044 2.878v-5.087c-.049-.655-.431-1.225-.947-1.57l-4.098-2.367v.688zm5.442-4.19c-1.333.769-3.997 2.284-4.954 2.836 1.672.96 3.314 1.9 4.224 2.42.497.379.636.695.733.908.077-.214.192-.513.669-.874.89-.506 2.55-1.453 4.296-2.455-1.076-.62-3.632-2.066-4.968-2.835zm5.443 3.501l-4.056 2.34c-.538.341-.938.925-.989 1.597v5.16c1.706-.98 4.106-2.357 5.044-2.896v-6.201zm-2.424 5.449l-.631.283v1.249l-.791.459v-1.271l-.653.293 1.019-1.865 1.056.852z" fill-rule="evenodd" clip-rule="evenodd" fill="#fff"/>
    </g>
  </g>
  <g>
    <circle cx="461.392" cy="45.75" r="45" fill="#fff" stroke="#e5e5e5" stroke-width="1.5" stroke-miterlimit="10"/>
    <path class="st5" d="M449.009 71.27l2.368-.798c1.585-.534 3.323-.36 4.771.478 2.698 1.564 5.9 2.013 8.925 1.254l9.214-2.313c.319-.085.609-.256.838-.494.926-.958.541-2.554-.72-2.985l-.057-.019c-.342-.117-.711-.13-1.06-.036L467.7 67.88l-3.228-.416c.734.127 1.461-.254 1.773-.93.382-.826-.043-1.8-.909-2.083l-7.898-3.058c-1.762-.682-3.72-.642-5.451.114-1.924.839-4.235 1.843-4.617 1.984l1.639 7.779zM446.684 60.288l2.73 13.241-9.733 3.11V60.284z"/>
    <path class="st5" d="M447.884 67.179c-.926-1.477 4.322-2.359 6.141-1.547 1.593.711 1.483 1.792 2.766 3.094 4.407 4.47 17.123-.153 18.846-1.516.101-.08-.02 1.263 0 1.469.114 1.184-4.385 2.434-11.299 3.891-4.392.925-7.61-1.974-11.25-2.435-3.352-.424-3.61 2.426-4.246.612-.494-1.405-.164-2.302-.958-3.568z"/>
    <path class="st1" d="M447.369 63.49c.382-.141 2.693-1.144 4.617-1.984 1.732-.756 3.69-.796 5.451-.114l7.898 3.058c.865.282 1.29 1.256.909 2.083-.312.676-1.04 1.058-1.773.93l-7.163-1.655"/>
    <path class="st5" d="M448.219 66.165l-8.538 3.147.041 7.197 9.801-3.03z"/>
    <path class="st1" d="M467.699 67.879l5.588-1.523c.349-.094.718-.081 1.06.036l.057.019c1.261.431 1.645 2.027.72 2.985-.229.237-.519.408-.838.494l-9.214 2.313c-3.025.759-6.226.309-8.925-1.254-1.447-.839-3.186-1.013-4.771-.479l-2.368.798M446.684 60.288l2.73 13.241-9.733 3.11V60.284z"/>
    <circle class="st1" cx="444.187" cy="71.481" r="1.347"/>
    <circle class="st11" cx="462.363" cy="45.802" r="12.016"/>
    <path fill-rule="evenodd" clip-rule="evenodd" fill="none" stroke="#fff" stroke-width=".75" stroke-linecap="round" stroke-linejoin="round" stroke-miterlimit="10" d="M457.139 40.577h10.449v10.449h-10.449z"/>
    <path fill-rule="evenodd" clip-rule="evenodd" fill="#fff" stroke="#fff" stroke-width="1.5" stroke-linecap="round" stroke-linejoin="round" stroke-miterlimit="10" d="M457.139 40.577h10.449v10.449h-10.449z"/>
    <path fill="none" stroke="#2594c9" stroke-width="1.5" stroke-linecap="square" stroke-linejoin="round" stroke-miterlimit="10" d="M460.709 40.577v3.919h3.308v-3.919"/>
    <path class="st17" d="M462.353 21.82v8.359"/>
    <circle class="st2" cx="462.353" cy="13.838" r="4.375"/>
    <path class="st17" d="M480.361 28.941l-5.911 5.911"/>
    <circle class="st2" cx="486.32" cy="22.981" r="4.375"/>
    <path class="st17" d="M444.128 29.881l5.911 5.91"/>
    <circle class="st2" cx="438.168" cy="23.921" r="4.375"/>
  </g>
</svg>
