<svg width="88" height="25" xmlns="http://www.w3.org/2000/svg">
  <g fill="none" fill-rule="evenodd">
    <path d="M11.9714912 20.5232558V9.36046512c0-2.5-.9879386-3.77906977-3.08004383-3.77906977-1.51096491 0-2.73135965.69767442-4.00986842 2.09302325V0H.17434211v20.4651163h4.70723684V9.94186047c.58114035-.63953489 1.04605263-.93023256 1.51096491-.93023256.69736842 0 .87171053.52325581.87171053 1.56976739v9.9418605h4.70723681zM26.5 13.255814c0-4.82558144-2.4989035-7.61627912-6.566886-7.61627912-4.0098684 0-6.5668859 2.79069768-6.5668859 7.61627912 0 4.7674418 2.5570175 7.616279 6.5668859 7.616279 4.0679825 0 6.566886-2.7906977 6.566886-7.616279zm-4.997807 0c0 3.0813953-.2905702 4.5348837-1.627193 4.5348837-1.3366228 0-1.627193-1.4534884-1.627193-4.5348837 0-3.0232559.3486842-4.53488377 1.627193-4.53488377 1.3947368 0 1.627193 1.45348837 1.627193 4.53488377zm25.2214912 7.2674418V9.36046512c0-2.55813954-.9298246-3.77906977-3.0800438-3.77906977-1.510965 0-2.7894737.75581395-4.0679825 2.26744186-.2905702-1.45348837-1.3947368-2.26744186-2.9638158-2.26744186-1.5109649 0-2.6732456.69767442-4.0098684 2.09302325V5.93023256h-4.7072369V20.4651163h4.7072369V9.94186047c.5811403-.63953489 1.0460526-.93023256 1.5109649-.93023256.6973684 0 .8717105.52325581.8717105 1.56976739v9.9418605h4.6491228V10c.5230263-.63953488 1.0460527-.93023256 1.5109649-.93023256.6973685 0 .8717106.52325582.8717106 1.56976746v9.9418604h4.7072368v-.0581395zm15.7489035 0h4.997807v-5.1744186h-4.997807v5.1744186zm19.4100877-7.7906977c0-4.59302322-1.801535-7.09302322-4.8234649-7.09302322-1.1041666 0-2.1502193.58139535-3.0219298 1.68604652V6.04651163h-4.5910088V24.8837209h4.7072369V19.244186c.7554824.8720931 1.627193 1.3372093 2.7894737 1.3372093 3.0219298-.0581395 4.9396929-2.7906976 4.9396929-7.8488372zm-4.8234649.4069768c0 3.2558139 0 4.7674418-1.2785087 4.7674418-.4649123 0-.9879386-.2906976-1.510965-.872093V9.24418605c.5230264-.58139535 1.0460527-.87209303 1.510965-.87209303 1.2785087.05813954 1.2785087 1.51162791 1.2785087 4.76744188zm6.2182018 7.3837209h4.7072368V.05813953h-4.7072368V20.5232558z" fill="#1B1B1B"/>
    <path d="M60.5548246 13.1395349c0-4.82558141-2.2083334-7.50000002-6.0438597-7.50000002-3.8936403 0-6.4506579 2.84883721-6.4506579 7.50000002 0 4.8255814 2.5570176 7.7325581 6.566886 7.7325581 2.6151316 0 4.6491228-1.3372093 5.8114035-3.9534883l-3.1962719-1.1627907c-.5230264 1.3372093-1.4528509 2.0348837-2.4407895 2.0348837-1.3366228 0-2.0921053-1.2209303-2.0921053-3.5465117h7.8453948v-1.1046511m-4.4166667-1.7441861h-3.5449561v-.1744186c0-1.68604648.6973684-2.5581395 1.801535-2.5581395 1.1041667 0 1.7434211.87209302 1.7434211 2.5v.2325581" fill="#E20000"/>
  </g>
</svg>
